<?xml version="1.0" encoding="utf-8"?>
<!-- Generator: Adobe Illustrator 26.3.1, SVG Export Plug-In . SVG Version: 6.00 Build 0)  -->
<svg version="1.1" id="Layer_1" xmlns="http://www.w3.org/2000/svg" xmlns:xlink="http://www.w3.org/1999/xlink" x="0px" y="0px"
	 viewBox="0 0 980.7 178.9" style="enable-background:new 0 0 980.7 178.9;" xml:space="preserve">
<style type="text/css">
	.st0{enable-background:new    ;}
	.st1{fill:#0062E0;}
</style>
<g class="st0">
	<path class="st1" d="M226.6,163.3c-3.2,0-5.9-1.3-7.6-3.9h-0.1v3.4h-4.2v-31.6h4.4v13.2h0.1c1.6-2.3,4.2-3.8,7.6-3.8
		c6.4,0,10.5,4.9,10.5,11.3C237.2,158.4,233.1,163.3,226.6,163.3z M225.8,144.2c-4.4,0-7,3.3-7,7.6c0,4.4,2.6,7.7,7,7.7
		s6.9-3.3,6.9-7.7C232.7,147.5,230.1,144.2,225.8,144.2z"/>
	<path class="st1" d="M260.8,141.1l-10.5,25.6c-1.5,3.8-3.3,5-5.7,5s-4.1-0.8-4.1-0.8l0.9-3.6c0,0,1.2,0.5,2.3,0.5
		c0.9,0,1.9,0.1,2.8-2.6l1.1-2.9l-8.7-21.3l4.6,0l6.5,16.9l6.4-16.9L260.8,141.1z"/>
</g>
<g class="st0">
	<path class="st1" d="M297.7,162.8h-8.6l-6.6-12.1h-2.3v12.1h-7.4v-31.6H284c3.5,0,6.3,0.7,8.3,2.2c2.1,1.6,3.5,4.1,3.5,7.2
		c0,6-3.8,8.3-6.2,9.1L297.7,162.8z M286.8,137.8c-0.9-0.7-2.1-0.8-3.8-0.8h-2.9v8.1h2.9c1.7,0,2.9-0.2,3.8-0.9
		c1-0.7,1.6-1.6,1.6-3.2C288.4,139.4,287.8,138.5,286.8,137.8z"/>
	<path class="st1" d="M321.1,162.8h-20.9v-31.6h20.5v5.9h-13.1v6.5h12.4v5.9h-12.4v7.3h13.5V162.8z"/>
	<path class="st1" d="M354.1,162.8H346l-2.2-6.4h-11.3l-2.2,6.4h-7.7l11.9-31.7h7.7L354.1,162.8z M342.1,150.7l-3.9-11.4l-3.9,11.4
		H342.1z"/>
</g>
<g class="st0">
	<path class="st1" d="M379.7,159.1c-2.6,2.2-6.7,3.8-12.2,3.8h-10.7v-31.6h10.7c5.5,0,9.6,1.6,12.2,3.8c2.7,2.2,5.1,5.9,5.1,12
		C384.8,153.2,382.3,156.8,379.7,159.1z M374.5,139.6c-1.3-1.2-3.5-2.2-6.6-2.2h-3.8v19.2h3.8c3.1,0,5.3-1,6.6-2.3
		c1.3-1.2,2.8-3.3,2.8-7.2S375.8,140.9,374.5,139.6z"/>
</g>
<g class="st0">
	<path class="st1" d="M413.2,131.2l-11,18.8v12.8h-7.4V150l-11-18.8h8.2l6.5,12.6l6.5-12.6H413.2z"/>
</g>
<g class="st0">
	<path class="st1" d="M444,162.8h-18.9v-31.6h18.5v3.7h-14.1v9.4h13.3v3.7h-13.3v11H444V162.8z"/>
</g>
<g class="st0">
	<path class="st1" d="M469.6,162.8h-4.2v-3.5h-0.1c-1.8,2.7-4.5,4-7.6,4c-6.5,0-10.6-4.9-10.6-11.4c0-6.4,4.1-11.3,10.5-11.3
		c3.5,0,6.1,1.6,7.6,3.8h0.1v-13.2h4.4V162.8z M458.5,144.2c-4.4,0-6.9,3.3-6.9,7.6c0,4.4,2.6,7.7,6.9,7.7s6.9-3.3,6.9-7.7
		C465.4,147.5,462.9,144.2,458.5,144.2z"/>
	<path class="st1" d="M494.4,162.8h-4.3l0-3.1c-1.2,2.1-3.7,3.6-6.7,3.6c-3.1,0-4.9-1.1-6-2.5c-1.1-1.5-1.6-3.6-1.6-6.7V141h4.4
		v12.9c0,3,0.6,5.8,4.5,5.8c3.8,0,5.4-3.3,5.4-7V141h4.4V162.8z"/>
	<path class="st1" d="M518.7,160c-0.6,0.6-2.9,3.3-8.7,3.3c-5.9,0-11-4.4-11-11.4c0-7,5.4-11.3,11.1-11.3c5.8,0,8.2,2.8,8.4,3.1
		L517,147c-0.7-0.7-2.7-2.7-6.5-2.7s-7.1,2.9-7.1,7.5c0,4.6,2.9,7.7,7.1,7.7c4.3,0,6.6-2.7,6.6-2.7L518.7,160z"/>
	<path class="st1" d="M539.1,162.8h-4.3l0-2.7c-0.9,0.9-2.9,3.3-6.9,3.3c-4,0-7.5-2.5-7.5-6.7c0-4.3,3.5-6.4,8.5-6.6l5.8-0.2v-0.9
		c0-3.3-2.2-4.9-5.4-4.9c-3.2,0-5.8,1.4-6.6,1.9l-1.3-2.9c1.6-0.9,4.5-2.2,8.2-2.2s5.7,1,7.2,2.5c1.5,1.5,2.3,3.3,2.3,7.1V162.8z
		 M534.8,152.4l-5.1,0.3c-3.5,0.2-4.9,1.7-4.9,3.8s1.6,3.8,4.5,3.8c2.8,0,4.7-1.9,5.5-3.2V152.4z"/>
	<path class="st1" d="M555.3,162.6c0,0-1.7,0.7-4,0.7c-2.3,0-3.7-0.9-4.6-2.2c-0.9-1.4-1.1-3.1-1.1-6.5v-9.9h-3.2v-3.5h3.2v-6.5h4.4
		v6.5h5.2v3.5H550v9.8c0,1.8,0,3.1,0.5,4c0.4,0.7,1,1.1,2.2,1.1c1.3,0,2.2-0.5,2.2-0.5L555.3,162.6z"/>
	<path class="st1" d="M561.4,136.6c-1.7,0-2.9-1.1-2.9-2.7s1.2-2.7,2.9-2.7c1.6,0,2.8,1.1,2.8,2.7S563,136.6,561.4,136.6z
		 M563.6,162.8h-4.4v-21.8h4.4V162.8z"/>
	<path class="st1" d="M579.9,163.3c-6.5,0-11.5-4.5-11.5-11.3c0-6.7,5-11.4,11.5-11.4c6.5,0,11.5,4.6,11.5,11.4
		C591.4,158.8,586.3,163.3,579.9,163.3z M579.9,144.2c-4.4,0-7.1,3.4-7.1,7.6c0,4.3,2.7,7.7,7.1,7.7c4.4,0,7.1-3.4,7.1-7.7
		C586.9,147.6,584.2,144.2,579.9,144.2z"/>
	<path class="st1" d="M614.9,162.8h-4.4v-12.1c0-3.7-0.6-6.4-4.5-6.4c-4.1,0-5.6,3.4-5.6,7.6v10.9h-4.4v-21.8h4.4l0,3.4h0.1
		c1.1-2.2,3.5-3.8,6.6-3.8c6.2,0,7.8,4.1,7.8,9.3V162.8z"/>
</g>
<g>
	<path class="st1" d="M248.2,96.3c-20.9,0-36.8-16.2-36.8-36.8v-0.3c0-20.2,15.2-36.8,37.1-36.8c13.5,0,21.6,4.4,28,11.1L266.5,45
		c-5.4-5.1-11.1-8.1-18.2-8.1c-12.1,0-20.6,10.1-20.6,22.3v0.3c0,12.2,8.4,22.6,20.6,22.6c8.1,0,13.2-3.4,18.9-8.4l10.1,10.1
		C270.1,91.2,262.1,96.2,248.2,96.3L248.2,96.3z"/>
	<path class="st1" d="M320.5,94.9v-6.1c-3.7,4.1-9.1,7.1-16.5,7.1c-10.5,0-18.9-6.1-18.9-16.9v-0.3c0-11.8,9.1-17.5,21.9-17.5
		c5.4,0,9.5,1,13.5,2.4v-1c0-6.4-4-10.1-11.8-10.1c-6.1,0-10.1,1-15.2,3L290.1,44c6.1-2.7,11.8-4.4,21.3-4.4
		c16.9,0,24.3,8.8,24.3,23.6v31.7L320.5,94.9L320.5,94.9z M320.8,73c-2.7-1.3-6.1-2-9.8-2c-6.8,0-10.8,2.7-10.8,7.4v0.3
		c0,4.1,3.4,6.8,8.4,6.8c7.1,0,12.1-4.1,12.1-9.4L320.8,73L320.8,73z"/>
	<path class="st1" d="M416.9,94.9V64.5c0-7.4-3.4-11.1-9.1-11.1s-9.5,3.7-9.5,11.1v30.4h-15.5V64.5c0-7.4-3.4-11.1-9.1-11.1
		s-9.5,3.7-9.5,11.1v30.4h-15.5V40.3h15.5V48c3.7-4.7,8.1-8.8,16.2-8.8c7.1,0,12.5,3,15.5,8.8c4.7-5.7,10.5-8.8,17.9-8.8
		c11.5,0,18.6,7.1,18.6,20.2v35.4H416.9L416.9,94.9z"/>
	<path class="st1" d="M478.4,95.9c-8.1,0-13.5-3.7-17.2-8.1v23.6h-15.5V40.6h15.5v7.8c3.7-5.1,9.1-8.8,17.2-8.8
		c12.8,0,25,10.1,25,28.3l0,0C503.3,86.2,491.5,95.9,478.4,95.9z M487.8,67.6c0-9.1-6.1-15.2-13.5-15.2s-13.2,6.1-13.2,15.2v0.3
		c0,9.1,6.1,15.2,13.2,15.2C481.7,82.8,487.8,77,487.8,67.6L487.8,67.6z"/>
	<path class="st1" d="M548.9,94.9v-7.8c-3.7,4.7-8.1,8.8-15.9,8.8c-11.8,0-18.6-7.8-18.6-20.2V40.3H530v30.4
		c0,7.4,3.4,11.1,9.5,11.1s9.8-3.7,9.8-11.1V40.3h15.5v54.7H548.9L548.9,94.9z"/>
	<path class="st1" d="M597.5,95.9c-7.8,0-16.2-2.7-23.6-8.4l6.8-10.1c6.1,4.4,12.2,6.4,17.2,6.4c4.4,0,6.4-1.7,6.4-4.1v-0.3
		c0-3.4-5.4-4.4-11.5-6.4c-7.8-2.4-16.2-5.7-16.2-16.5v-0.3c0-11.1,9.1-17.2,19.9-17.2c7.1,0,14.5,2.4,20.2,6.4l-6.1,10.8
		c-5.4-3-10.8-5.1-14.8-5.1c-3.7,0-5.7,1.7-5.7,3.7v0.3c0,3,5.1,4.4,11.1,6.4c7.8,2.7,16.5,6.1,16.5,16.2V78
		C618.4,90.5,609.2,95.9,597.5,95.9L597.5,95.9z"/>
	<path class="st1" d="M666,96.3c-22.6,0-35.8-16.5-35.8-36.8v-0.3c0-19.2,13.8-36.8,35.4-36.8c11.5,0,18.9,3.4,26,9.5l-3.4,4
		c-5.7-5.1-12.2-8.4-22.9-8.4c-17.2,0-29.3,14.8-29.3,32v0.3c0,18.6,11.5,32.4,30.7,32.4c9.1,0,17.5-3.7,22.6-8.1V63.5h-24v-5.1h29
		v27.7C687.6,91.2,677.8,96.3,666,96.3L666,96.3z"/>
	<path class="st1" d="M739.8,47.7c-12.2,0-22.6,9.1-22.6,26v21.3h-5.1V43h5.1v14.8c4-9.5,12.8-15.9,22.9-15.5v5.4H739.8L739.8,47.7z
		"/>
	<path class="st1" d="M773.6,96.3c-15.5,0-26.7-12.5-26.7-27v-0.3c0-14.5,11.5-27.3,27-27.3s26.7,12.5,26.7,27v0.3
		C800.2,83.4,789.1,96.3,773.6,96.3z M794.8,68.9c0-12.5-9.5-22.6-21.6-22.6S752,56.4,752,68.6v0.3c0,12.5,9.5,22.6,21.6,22.6
		S794.8,81.4,794.8,68.9C794.8,68.9,794.8,68.9,794.8,68.9z"/>
	<path class="st1" d="M854.2,94.9v-9.8c-3.4,6.1-9.5,10.8-18.9,10.8c-13.2,0-20.9-9.1-20.9-21.6V42.6h5.1v31
		c0,10.8,6.1,17.9,16.5,17.9s18.2-7.8,18.2-18.6V43h5.1v52C859.3,94.9,854.2,94.9,854.2,94.9z"/>
	<path class="st1" d="M904.8,96.3c-10.5,0-17.2-6.1-21.6-12.5v27.7h-5.1V43h5.1v11.5c4.4-6.8,11.1-12.8,21.6-12.8
		c12.5,0,25.3,10.1,25.3,27v0.3C930.1,85.8,917.3,96.3,904.8,96.3z M924.7,68.9c0-13.8-9.5-22.6-20.2-22.6s-21.3,9.1-21.3,22.3v0.3
		c0,13.5,10.5,22.3,21.3,22.3C915.6,91.5,924.7,83.1,924.7,68.9C924.7,68.9,924.7,68.9,924.7,68.9z"/>
	<path class="st1" d="M962.5,95.9c-7.4,0-15.9-3-21.3-7.4l3-4.1c5.7,4.4,12.2,6.8,18.6,6.8c7.1,0,12.5-3.7,12.5-9.8v-0.3
		c0-6.1-6.4-8.4-13.8-10.5c-8.4-2.4-17.9-5.1-17.9-14.2v-0.3c0-8.4,7.1-14.5,17.2-14.5c6.1,0,13.2,2.4,18.6,5.7l-2.7,4
		c-4.7-3-10.5-5.1-15.9-5.1c-7.1,0-11.8,3.7-11.8,9.1v0.3c0,5.7,7.1,8.1,14.5,10.1c8.4,2.4,17.2,5.4,17.2,14.5v0.3
		C980.4,90.2,972.7,95.9,962.5,95.9L962.5,95.9z"/>
	<g>
		<path class="st1" d="M176.4,88.8c0.8,37.1-21.7,70.9-56.3,84.2c-1.2,0.4-2.5,0.8-4.2,1.2h-0.4c-6.2,2.1-12.9,3.3-20,4.2
			c-2.1,0-4.6,0.4-6.7,0.4c-10.8,0-22.1-2.1-32.1-6.2c-12.1-5-22.9-12.5-31.7-22.5c-0.8-1.2-1.2-2.5-0.4-3.8
			c0.4-0.8,1.2-1.7,2.5-1.7c0.8,0,2.1,0.4,2.9,0.8c2.1,2.1,4.6,4.6,6.7,6.2l0,0c1.2,0.8,2.1,1.7,3.3,2.9l1.2,0.8l2.1,1.7
			c5,3.3,10.4,5.8,15.8,7.9c11.3,4.2,23.3,5.4,35.4,4.2c6.2-0.8,12.5-2.1,18.3-4.2c40.4-14.6,61.3-59.2,46.3-99.6
			c-1.2-3.8-2.9-7.5-5-11.2C142.2,33,120.9,18.8,96.8,15.5c-2.1-0.4-4.2-1.2-5.4-2.9s-1.7-3.8-1.7-5.8c0.4-2.1,1.2-3.8,2.9-5
			s3.8-1.7,5.8-1.7l0,0c28.8,4.6,53.4,22.5,66.7,47.9C172.6,60.9,176,74.7,176.4,88.8z"/>
		<path class="st1" d="M82.6,92.6L82.6,92.6c-0.4,15,11.2,27.9,26.3,28.3h2.5c8.8,0,16.7-2.9,23.3-8.8V88.4h-23.8v10.4H123v7.9
			c-3.3,2.1-7.1,3.3-11.2,3.3c-9.2,0-16.7-7.1-16.7-16.2v-1.2l0,0c-0.4-9.2,6.7-16.7,15.8-17.1c5.4-0.4,10.8,1.7,14.6,5.4l7.5-9.2
			c-5.8-5.4-13.8-7.9-21.3-7.5C96.4,63.8,83.4,75.9,83,91.3C82.6,92.2,82.2,92.2,82.6,92.6L82.6,92.6z"/>
		<path class="st1" d="M38.4,92.6c-0.4,15,11.7,27.9,26.7,28.3h1.2c7.1,0.4,13.8-2.1,19.2-6.7c-2.5-2.9-4.6-6.2-5.4-10
			c-3.3,3.8-8.3,5.4-13.3,5.4c-8.8,0-15.8-7.5-15.8-16.2v-1.2c-0.4-8.8,6.2-16.7,15.4-17.1h0.4c5,0,9.6,2.1,13.3,5.8
			c1.2-3.8,3.3-7.1,6.2-10.4c-5.4-4.6-12.5-6.7-19.6-6.7c-15.4-0.4-27.9,11.7-28.3,27.1L38.4,92.6L38.4,92.6L38.4,92.6z"/>
		<path class="st1" d="M80.9,10.5l-1.2-7.1c-0.4-2.1-2.5-3.8-4.6-3.3L68,1.3c-2.1,0.4-3.3,2.5-3.3,4.6l1.2,7.1
			c0.4,2.5,2.9,3.8,5,3.3l0,0l7.1-1.2C80.1,14.6,81.3,12.6,80.9,10.5L80.9,10.5z"/>
		<path class="st1" d="M56.8,16.7l-3.3-6.2c-0.8-2.1-3.3-2.9-5.4-2.1l-6.2,3.3c-1.7,1.2-2.5,3.8-1.7,5.4l3.3,6.2
			c1.2,1.7,3.3,2.5,5.4,1.7l6.2-3.3C57.2,20.9,57.6,18.8,56.8,16.7L56.8,16.7z"/>
		<path class="st1" d="M35.5,30.9l-4.6-4.6c-1.2-1.2-3.3-1.2-5,0l-4.2,4.6c-1.2,1.3-1.2,3.8,0,5l0,0l4.6,4.6c1.2,1.2,3.8,1.2,5,0
			l4.6-4.6C36.8,34.2,36.8,32.2,35.5,30.9L35.5,30.9L35.5,30.9z"/>
		<path class="st1" d="M18,50.1l-5.4-2.5c-1.7-0.8-3.3,0-4.2,1.7l-2.1,5c-0.8,1.7,0,3.3,1.7,4.2l5.4,2.5c1.7,0.8,3.3,0,4.2-1.7
			l2.1-5C20.5,52.6,19.7,50.9,18,50.1z"/>
		<path class="st1" d="M9.2,74.7l-5-0.8c-1.7-0.4-2.9,0.8-3.3,2.5h0l-0.8,5c-0.4,1.7,0.8,2.9,2.5,3.3l0,0l5,0.8
			c1.7,0.4,2.9-0.8,3.3-2.5l0.8-5C11.7,76.3,10.5,75.1,9.2,74.7L9.2,74.7z"/>
		<path class="st1" d="M8,100.1l-4.6,0.8c-1.2,0.4-2.1,1.7-2.1,2.9l0,0l0.8,4.2c0.4,1.2,1.7,2.1,2.9,2.1l4.6-0.8
			c1.2,0,2.1-1.2,2.1-2.9l0,0l-0.8-4.6C10.9,100.9,9.7,100.1,8,100.1z"/>
		<path class="st1" d="M33.8,29.2l-0.4-0.8c-2.1-2.5-5.8-2.5-8.8-0.4l0,0l-0.4,0.4c-2.5,2.1-2.9,6.2-0.8,8.8l0.4,0.8
			c2.1,2.5,6.2,2.9,8.8,0.8l0.8-0.8C35.9,35.9,36.3,31.7,33.8,29.2C33.8,29.2,33.8,29.2,33.8,29.2z"/>
		<path class="st1" d="M15.1,123.8l-4.2,2.1c-1.2,0.4-1.7,2.1-1.2,3.3l2.1,4.2c0.4,1.2,2.1,1.7,3.3,1.2l0,0l4.2-2.1
			c1.2-0.8,1.7-2.1,0.8-3.3l0,0l-2.1-4.2C17.6,123.8,16.3,123.4,15.1,123.8L15.1,123.8L15.1,123.8z"/>
	</g>
</g>
</svg>
